<svg xmlns="http://www.w3.org/2000/svg" width="124.197" height="124.197" viewBox="0 0 124.197 124.197">
  <g id="admin" transform="translate(-1 -1)">
    <path id="Trazado_33" data-name="Trazado 33" d="M125.2,38.628V23.468l-5.6-1.376q-.37-1-.833-1.993l2.989-4.938L111.034,4.439,106.1,7.43q-.995-.463-1.993-.833L102.729,1H87.569L86.193,6.6q-1,.37-1.993.833L79.262,4.441,68.541,15.162,71.53,20.1q-.463.995-.833,1.993L65.1,23.468v13.59H11.016A10.027,10.027,0,0,0,1,47.073V95.149a10.027,10.027,0,0,0,10.016,10.016H27.041v8.013H19.029a4.01,4.01,0,0,0-4.006,4.006v4.006a4.01,4.01,0,0,0,4.006,4.006H125.2v-8.013a32.088,32.088,0,0,0-23.135-30.763,15.987,15.987,0,0,0,.7-26.1l.2-.2,1.138-4.629q1-.37,1.993-.833l4.938,2.989,10.721-10.721-2.989-4.938Q119.231,41,119.6,40ZM11.016,41.063H79.124a6.017,6.017,0,0,1,6.01,6.01V59.256a16.119,16.119,0,0,0-4.006,3.293V49.076A4.01,4.01,0,0,0,77.12,45.07h-64.1a4.01,4.01,0,0,0-4.006,4.006V89.139H5.006V47.073A6.017,6.017,0,0,1,11.016,41.063ZM81.127,31.048A14.1,14.1,0,1,1,88.39,43.3a10.054,10.054,0,0,0-5.5-5.495A13.992,13.992,0,0,1,81.127,31.048Zm21.766,78.062-6.9,12.081h-.208l8.287-29.835c.855.363,1.689.771,2.5,1.214l-1.27,7.626-4.573,4.573ZM90.3,121.19l-6.9-12.081,2.169-4.339L80.995,100.2l-1.27-7.626a27.676,27.676,0,0,1,2.5-1.214L90.51,121.19ZM69.108,89.139H65.1V57.089h4.006Zm12.019-1.647V83.679a16,16,0,0,0,3.1,2.742A31.492,31.492,0,0,0,81.127,87.493ZM77.12,89.139H73.114V53.082H61.1V89.139H57.089V61.1H45.07V89.139H41.063V69.108H29.044V89.139H13.019V49.076h64.1Zm-24.038,0H49.076V65.1h4.006Zm-16.025,0H33.051V73.114h4.006ZM5.006,95.149v-2H72.018a32.238,32.238,0,0,0-6.586,8.013H11.016A6.017,6.017,0,0,1,5.006,95.149Zm26.041,10.016H63.455a31.717,31.717,0,0,0-2.081,8.013H31.048ZM19.029,121.19v-4.006H61.1v4.006Zm46.073,0v-4.006A27.982,27.982,0,0,1,76.067,94.991l1.188,7.129,3.439,3.439-1.837,3.674,6.831,11.957H75.117V105.165H71.111V121.19H65.182Zm56.089-4.006v4.006h-6.01V105.165h-4.006V121.19H100.6l6.833-11.957-1.837-3.674,3.439-3.439,1.188-7.129a27.986,27.986,0,0,1,10.963,22.193ZM100.261,90.089l-7.115,25.617L86.031,90.089a27.135,27.135,0,0,1,14.231,0Zm4.9-16.975A12.019,12.019,0,1,1,93.146,61.1,12.031,12.031,0,0,1,105.165,73.114ZM116.7,46.324,110.425,52.6l-4.155-2.514-1,.519a21.823,21.823,0,0,1-3.455,1.446l-1.074.339-1.392,5.669-.212.206a15.716,15.716,0,0,0-10-.649V48A18.176,18.176,0,1,0,78.194,37.057H69.108V26.609l4.7-1.156.339-1.074a21.979,21.979,0,0,1,1.446-3.455l.519-1L73.6,15.771,79.875,9.5l4.155,2.514,1-.519a21.823,21.823,0,0,1,3.455-1.446l1.074-.339,1.154-4.7h8.878l1.156,4.7,1.074.339a21.98,21.98,0,0,1,3.455,1.446l1,.519L110.425,9.5l6.276,6.276-2.514,4.155.519,1a21.823,21.823,0,0,1,1.446,3.455l.339,1.074,4.7,1.154v8.878l-4.7,1.156-.339,1.072a21.921,21.921,0,0,1-1.446,3.457l-.519,1Z"/>
    <path id="Trazado_34" data-name="Trazado 34" d="M53.016,31.032A10.016,10.016,0,1,0,43,21.016,10.027,10.027,0,0,0,53.016,31.032Zm0-16.025a6.01,6.01,0,1,1-6.01,6.01A6.017,6.017,0,0,1,53.016,15.006Z" transform="translate(42.133 10.032)" fill="#e30613"/>
    <path id="Trazado_35" data-name="Trazado 35" d="M9,27h4.006v4.006H9Z" transform="translate(8.025 26.082)" fill="#e30613"/>
    <path id="Trazado_36" data-name="Trazado 36" d="M13,27h4.006v4.006H13Z" transform="translate(12.038 26.082)" fill="#e30613"/>
    <path id="Trazado_37" data-name="Trazado 37" d="M17,27h4.006v4.006H17Z" transform="translate(16.051 26.082)" fill="#e30613"/>
    <path id="Trazado_38" data-name="Trazado 38" d="M9,31H29.032v4.006H9Z" transform="translate(8.025 30.095)" fill="#e30613"/>
  </g>
</svg>
