<svg xmlns="http://www.w3.org/2000/svg" width="70.881" height="126.01" viewBox="0 0 70.881 126.01">
  <g id="app" transform="translate(-14)">
    <path id="Trazado_24" data-name="Trazado 24" d="M30,6.938A1.969,1.969,0,0,0,30,3h-.02A1.969,1.969,0,0,0,30,6.938Z" transform="translate(13.59 2.907)"/>
    <path id="Trazado_25" data-name="Trazado 25" d="M32.969,6.938h5.907a1.969,1.969,0,1,0,0-3.938H32.969a1.969,1.969,0,1,0,0,3.938Z" transform="translate(16.471 2.907)"/>
    <path id="Trazado_26" data-name="Trazado 26" d="M84.881,112.228V11.817A11.825,11.825,0,0,0,73.093.006c-.008,0-.016-.006-.026-.006H25.813A11.825,11.825,0,0,0,14,11.813V112.228A13.8,13.8,0,0,0,27.782,126.01H71.1A13.8,13.8,0,0,0,84.881,112.228ZM80.943,98.445H17.938V15.755H80.943Zm-63.005,3.938H80.943v1.969A9.856,9.856,0,0,1,71.1,114.2H27.782a9.856,9.856,0,0,1-9.845-9.845ZM25.813,3.938H73.048c.008,0,.012,0,.02,0a7.884,7.884,0,0,1,7.876,7.876H17.938v0a7.884,7.884,0,0,1,7.876-7.876ZM71.1,122.072H27.782a9.861,9.861,0,0,1-9.648-7.9,13.737,13.737,0,0,0,9.648,3.958H71.1a13.737,13.737,0,0,0,9.648-3.958A9.861,9.861,0,0,1,71.1,122.072Z" transform="translate(0 0)"/>
    <path id="Trazado_27" data-name="Trazado 27" d="M29,57.907A5.907,5.907,0,1,0,34.907,52,5.914,5.914,0,0,0,29,57.907Zm5.907-1.969a1.969,1.969,0,1,1-1.969,1.969A1.97,1.97,0,0,1,34.907,55.938Z" transform="translate(14.534 50.383)"/>
    <path id="Trazado_28" data-name="Trazado 28" d="M27.845,70.127h35.44a9.856,9.856,0,0,0,9.845-9.845V24.843A9.856,9.856,0,0,0,63.285,15H27.845A9.856,9.856,0,0,0,18,24.843v35.44A9.856,9.856,0,0,0,27.845,70.127ZM21.938,24.843a5.914,5.914,0,0,1,5.907-5.907h35.44a5.914,5.914,0,0,1,5.907,5.907v35.44a5.914,5.914,0,0,1-5.907,5.907H27.845a5.914,5.914,0,0,1-5.907-5.907Z" transform="translate(3.876 14.532)"/>
    <path id="Trazado_29" data-name="Trazado 29" d="M30.907,37.815A1.969,1.969,0,0,0,32.3,34.454L29.755,31.91,32.3,29.364a1.969,1.969,0,1,0-2.784-2.784l-3.936,3.938a1.967,1.967,0,0,0,0,2.784l3.936,3.936a1.964,1.964,0,0,0,1.392.577Z" transform="translate(10.66 25.194)" fill="#e30613"/>
    <path id="Trazado_30" data-name="Trazado 30" d="M35.583,37.238a1.968,1.968,0,0,0,2.784,0L42.3,33.3a1.967,1.967,0,0,0,0-2.784L38.367,26.58a1.969,1.969,0,0,0-2.784,2.784l2.544,2.546-2.544,2.544a1.967,1.967,0,0,0,0,2.784Z" transform="translate(20.353 25.194)" fill="#e30613"/>
    <path id="Trazado_31" data-name="Trazado 31" d="M31.35,40.653a1.964,1.964,0,0,0,2.491-1.244l3.934-11.813a1.969,1.969,0,1,0-3.735-1.246L30.1,38.162A1.969,1.969,0,0,0,31.35,40.653Z" transform="translate(15.505 24.225)" fill="#e30613"/>
    <path id="Trazado_32" data-name="Trazado 32" d="M42.658,61.316A21.658,21.658,0,1,0,21,39.658,21.684,21.684,0,0,0,42.658,61.316Zm0-39.378a17.72,17.72,0,1,1-17.72,17.72A17.739,17.739,0,0,1,42.658,21.938Z" transform="translate(6.782 17.44)"/>
  </g>
</svg>
