<svg xmlns="http://www.w3.org/2000/svg" width="123.923" height="123.909" viewBox="0 0 123.923 123.909">
  <g id="comercio-electronico" transform="translate(0 -0.027)">
    <g id="Grupo_2" data-name="Grupo 2" transform="translate(0 0.027)">
      <g id="Grupo_1" data-name="Grupo 1">
        <path id="Trazado_5" data-name="Trazado 5" d="M123.923,92.956V25.831a7.745,7.745,0,0,0-7.745-7.745H82.615V15.5A15.49,15.49,0,0,0,61.961.918,15.49,15.49,0,0,0,41.308,15.5v2.582H7.745A7.745,7.745,0,0,0,0,25.831V92.956A7.745,7.745,0,0,0,7.745,100.7H46.471v6.429A15.258,15.258,0,0,0,36.4,118.773H30.981v5.163H92.942v-5.163H87.521A15.258,15.258,0,0,0,77.452,107.13V100.7H97l2.995,4.983a2.581,2.581,0,0,0,1.91,1.239h.31a2.583,2.583,0,0,0,1.833-.749l1.833-1.833,12.78,12.78,3.64-3.64L109.491,100.7h6.687A7.745,7.745,0,0,0,123.923,92.956ZM82.615,23.25h33.563a2.582,2.582,0,0,1,2.582,2.582V72.3H94.878l-5.99-44.225a2.582,2.582,0,0,0-2.582-2.246H82.615ZM77.452,15.5V25.831H72.288V15.5a15.49,15.49,0,0,0-3.847-10.2A10.327,10.327,0,0,1,77.452,15.5Zm-30.981,0a10.327,10.327,0,1,1,20.654,0V25.831H46.471Zm-2.582,15.49h40.2L90.36,77.259a1.625,1.625,0,0,1-.826.206H34.466a1.654,1.654,0,0,1-.878-.206l6.248-46.265h4.053ZM5.163,25.831A2.582,2.582,0,0,1,7.745,23.25H41.308v2.582H37.59a2.582,2.582,0,0,0-2.582,2.246L29.044,72.3H5.163ZM82.2,118.774H41.721c.9-3.1,3.692-7.745,12.5-7.745h7.745v-5.163H51.634V100.7H72.288v5.163H69.706v5.163C78.51,111.028,81.3,115.675,82.2,118.774Zm20.525-18.588-3.95-6.558,6.558,3.95Zm8.107-5.344L92.581,83.894a2.582,2.582,0,0,0-3.537,3.537L93.9,95.538H7.745a2.582,2.582,0,0,1-2.582-2.582V77.466H28.4a4.7,4.7,0,0,0,1.188,3.1,6.4,6.4,0,0,0,4.854,2.065H89.508a6.351,6.351,0,0,0,4.828-2.04,4.673,4.673,0,0,0,1.188-3.124H118.76v15.49a2.582,2.582,0,0,1-2.582,2.582h-4.621A2.59,2.59,0,0,0,110.834,94.841Z" transform="translate(0 -0.027)"/>
      </g>
    </g>
    <g id="Grupo_4" data-name="Grupo 4" transform="translate(10.327 85.211)">
      <g id="Grupo_3" data-name="Grupo 3">
        <rect id="Rectángulo_6" data-name="Rectángulo 6" width="5.163" height="5.163"/>
      </g>
    </g>
    <g id="Grupo_6" data-name="Grupo 6" transform="translate(18.072 85.211)">
      <g id="Grupo_5" data-name="Grupo 5">
        <rect id="Rectángulo_7" data-name="Rectángulo 7" width="5.163" height="5.163"/>
      </g>
    </g>
    <g id="Grupo_8" data-name="Grupo 8" transform="translate(25.817 85.211)">
      <g id="Grupo_7" data-name="Grupo 7">
        <rect id="Rectángulo_8" data-name="Rectángulo 8" width="5.163" height="5.163"/>
      </g>
    </g>
    <g id="Grupo_10" data-name="Grupo 10" transform="translate(54.216 41.322)">
      <g id="Grupo_9" data-name="Grupo 9">
        <path id="Trazado_6" data-name="Trazado 6" d="M239.49,178.384v-5.163h-5.163v-2.582h-5.163v2.582h-2.582A2.582,2.582,0,0,0,224,175.8v7.745a2.582,2.582,0,0,0,2.582,2.582h7.745v2.582H224v5.163h5.163v2.582h5.163v-2.582h2.582a2.582,2.582,0,0,0,2.582-2.582v-7.745a2.582,2.582,0,0,0-2.582-2.582h-7.745v-2.582Z" transform="translate(-224 -170.639)" fill="#e30613"/>
      </g>
    </g>
    <g id="Grupo_12" data-name="Grupo 12" transform="translate(80.034 69.721)">
      <g id="Grupo_11" data-name="Grupo 11">
        <rect id="Rectángulo_9" data-name="Rectángulo 9" width="5.163" height="5.163"/>
      </g>
    </g>
    <g id="Grupo_14" data-name="Grupo 14" transform="translate(103.269 28.413)">
      <g id="Grupo_13" data-name="Grupo 13">
        <path id="Trazado_7" data-name="Trazado 7" d="M434.412,117.305h-7.745v5.163h5.163v5.163h5.163v-7.745A2.582,2.582,0,0,0,434.412,117.305Z" transform="translate(-426.667 -117.305)"/>
      </g>
    </g>
  </g>
</svg>
