<svg xmlns="http://www.w3.org/2000/svg" width="128.509" height="128.509" viewBox="0 0 128.509 128.509">
  <g id="paleta-de-pintura" transform="translate(0 0)">
    <path id="Trazado_49" data-name="Trazado 49" d="M37.9,105.669a15.017,15.017,0,0,0-4.791-11l0-.021c.267-3.686.483-7.572.647-11.582,7.709,1.452,13.171,4.375,16.263,8.717,3.987,5.6,2.925,12.172,2.5,14.053-1.4,6.273,2.313,12.627,8.605,13.836A57.566,57.566,0,0,0,72,120.717a56.874,56.874,0,0,0,56.506-56.462c.009-31.781-27.632-57.71-56.5-56.674C56.24,8.149,42.066,15.918,32.294,24.47q-.187-1.748-.393-3.4A90.685,90.685,0,0,0,29.384,7.478C28.728,5.24,27.191,0,22.84,0S16.953,5.24,16.3,7.478A90.717,90.717,0,0,0,13.78,21.069a369.051,369.051,0,0,0-2.234,43.185c0,10.621.354,21.13,1.025,30.391l0,.021a15.017,15.017,0,0,0-4.791,11v7.781A7.761,7.761,0,0,1,0,120.979v7.53H15.311A22.794,22.794,0,0,0,37.9,105.669ZM72.281,15.107c24.259-.87,48.706,21.277,48.7,49.146a49.249,49.249,0,0,1-58.428,48.022c-2.1-.4-3.15-2.682-2.677-4.8.759-3.4,1.916-12.151-3.72-20.064C51.732,81.2,44.289,77.192,34,75.46c.087-3.688.132-11.486.132-11.627a11.294,11.294,0,1,0-.228-14.478c-.167-5.348-.425-10.479-.767-15.274,8.52-9,22.923-18.391,39.141-18.974ZM39.055,55.485A3.765,3.765,0,1,1,41.717,60.1,3.763,3.763,0,0,1,39.055,55.485ZM20.881,25.21A120.537,120.537,0,0,1,22.84,12.278,120.537,120.537,0,0,1,24.8,25.21a383.293,383.293,0,0,1,1.806,39.044q0,1.886-.015,3.765h-7.5q-.015-1.878-.015-3.765A383.293,383.293,0,0,1,20.881,25.21ZM19.212,75.547h7.256c-.129,5.317-.349,10.488-.654,15.359a15.072,15.072,0,0,0-5.949,0c-.3-4.871-.524-10.042-.654-15.359Zm-3.9,37.9v-7.781a7.53,7.53,0,0,1,15.06,0,15.2,15.2,0,0,1-15.06,15.311H13.238A14.654,14.654,0,0,0,15.311,113.449Z" transform="translate(0 0)"/>
    <path id="Trazado_50" data-name="Trazado 50" d="M345.126,145.444a11.295,11.295,0,1,0-15.973,0A11.288,11.288,0,0,0,345.126,145.444ZM334.477,134.8a3.765,3.765,0,1,1,0,5.324A3.769,3.769,0,0,1,334.477,134.8Z" transform="translate(-244.058 -94.501)"/>
    <path id="Trazado_51" data-name="Trazado 51" d="M224.156,117.29a11.295,11.295,0,1,0-13.833-7.986A11.308,11.308,0,0,0,224.156,117.29Zm-3.9-14.547a3.765,3.765,0,1,1-2.662,4.611,3.77,3.77,0,0,1,2.662-4.611Z" transform="translate(-157.244 -71.219)" fill="#e30613"/>
    <path id="Trazado_52" data-name="Trazado 52" d="M272.439,341.119a11.295,11.295,0,1,0,7.987-13.833A11.308,11.308,0,0,0,272.439,341.119Zm9.936-6.56a3.765,3.765,0,1,1-2.662,4.611A3.763,3.763,0,0,1,282.375,334.559Z" transform="translate(-203.769 -244.848)"/>
    <path id="Trazado_53" data-name="Trazado 53" d="M357.292,250.42a11.295,11.295,0,1,0,13.833-7.986A11.308,11.308,0,0,0,357.292,250.42Zm14.546,3.9a3.765,3.765,0,1,1-2.662-4.611A3.763,3.763,0,0,1,371.838,254.317Z" transform="translate(-267.324 -181.293)"/>
  </g>
</svg>
